<svg width="72" height="17" viewBox="0 0 72 17" fill="none" xmlns="http://www.w3.org/2000/svg">
<path d="M9 0L11.1 6.5H18L12.4 10.5L14.6 17L9 13L3.4 17L5.6 10.5L0 6.5H6.9L9 0Z" fill="#83B3D3"/>
<path d="M27 0L29.1 6.5H36L30.4 10.5L32.6 17L27 13L21.4 17L23.6 10.5L18 6.5H24.9L27 0Z" fill="#83B3D3"/>
<path d="M45 0L47.1 6.5H54L48.4 10.5L50.6 17L45 13L39.4 17L41.6 10.5L36 6.5H42.9L45 0Z" fill="#83B3D3"/>
<path d="M63 0L65.1 6.5H72L66.4 10.5L68.6 17L63 13L57.4 17L59.6 10.5L54 6.5H60.9L63 0Z" fill="#83B3D3"/>
</svg>
